<svg xmlns="http://www.w3.org/2000/svg" viewBox="0 0 512 512">
  <defs>
    <linearGradient id="bg2" x1="0%" y1="0%" x2="100%" y2="100%">
      <stop offset="0%" stop-color="#041326" />
      <stop offset="100%" stop-color="#081d38" />
    </linearGradient>
    <linearGradient id="cloud" x1="0%" y1="0%" x2="100%" y2="0%">
      <stop offset="0%" stop-color="#1ba6f2" />
      <stop offset="100%" stop-color="#4c5bff" />
    </linearGradient>
    <linearGradient id="arrow" x1="0%" y1="0%" x2="100%" y2="0%">
      <stop offset="0%" stop-color="#26d07c" />
      <stop offset="100%" stop-color="#1ba6f2" />
    </linearGradient>
    <radialGradient id="halo" cx="50%" cy="40%" r="55%">
      <stop offset="0%" stop-color="#1e5be6" stop-opacity="0.55" />
      <stop offset="100%" stop-color="transparent" />
    </radialGradient>
  </defs>
  <rect width="512" height="512" fill="url(#bg2)" />
  <rect width="512" height="512" fill="url(#halo)" />
  <g fill="none" stroke="#233a63" stroke-dasharray="8 14" stroke-linecap="round">
    <circle cx="256" cy="256" r="208" opacity="0.5" />
    <circle cx="256" cy="256" r="160" opacity="0.35" />
    <circle cx="256" cy="256" r="120" opacity="0.25" />
  </g>
  <path d="M360 220a88 88 0 0 0-168-40 80 80 0 0 0-128 68c0 44 36 80 80 80h216c44 0 80-36 80-80s-36-80-80-80z" fill="url(#cloud)" opacity="0.9" />
  <g transform="translate(152 128)">
    <path d="M112 0 72 68h40l-16 68 64-92h-40z" fill="#3dbcf9" />
    <circle cx="142" cy="68" r="20" fill="#fbbc04" />
    <circle cx="112" cy="68" r="20" fill="#34a853" />
    <circle cx="172" cy="68" r="20" fill="#ea4335" />
  </g>
  <path d="M120 356l104-60 68 52 84-128 96 72" fill="none" stroke="url(#arrow)" stroke-width="16" stroke-linecap="round" stroke-linejoin="round" />
  <path d="M452 280h48v96h-96v-48h48z" fill="url(#arrow)" />
</svg>
