<svg xmlns="http://www.w3.org/2000/svg" viewBox="0 0 512 512">
  <defs>
    <linearGradient id="bg" x1="0%" y1="0%" x2="100%" y2="100%">
      <stop offset="0%" stop-color="#061329" />
      <stop offset="100%" stop-color="#0a1f40" />
    </linearGradient>
    <linearGradient id="accent" x1="0%" y1="0%" x2="100%" y2="0%">
      <stop offset="0%" stop-color="#18a0f5" />
      <stop offset="100%" stop-color="#6f6ff2" />
    </linearGradient>
    <radialGradient id="glow" cx="50%" cy="40%" r="60%">
      <stop offset="0%" stop-color="#2a9dff" stop-opacity="0.6" />
      <stop offset="100%" stop-color="transparent" />
    </radialGradient>
  </defs>
  <rect width="512" height="512" fill="url(#bg)" />
  <rect width="512" height="512" fill="url(#glow)" />
  <g fill="none" stroke="#1ba6f2" stroke-opacity="0.35">
    <path d="M40 140h432" />
    <path d="M40 220h432" />
    <path d="M40 300h432" />
    <path d="M40 380h432" />
    <path d="M120 60v392" />
    <path d="M200 60v392" />
    <path d="M280 60v392" />
    <path d="M360 60v392" />
    <path d="M440 60v392" />
  </g>
  <g fill="none" stroke="#18a0f5" stroke-width="6" stroke-linecap="round" stroke-linejoin="round">
    <path d="M134 278c16-38 40-60 72-66s66 11 100 52c30-32 62-45 96-39 34 6 62 30 84 72" opacity="0.6" />
    <path d="M134 310c20-32 44-46 72-44s58 18 88 54c26-30 54-42 84-36 30 6 58 30 84 72" />
  </g>
  <g fill="url(#accent)">
    <rect x="96" y="336" width="72" height="56" rx="12" />
    <rect x="200" y="304" width="72" height="88" rx="12" opacity="0.85" />
    <rect x="304" y="272" width="72" height="120" rx="12" opacity="0.7" />
    <rect x="408" y="240" width="72" height="152" rx="12" opacity="0.55" />
  </g>
  <g fill="#0b142b" stroke="#54d6ff" stroke-width="8">
    <path d="M344 204c0-44-36-80-80-80-11 0-21 2-30 6-20-32-56-52-96-52-64 0-116 52-116 116 0 2 0 4 0 6-42 12-72 50-72 96 0 56 44 100 100 100h284c60 0 108-48 108-108 0-58-46-106-104-108-0.8 0-1.6 0-2.4 0z" opacity="0.65" />
  </g>
  <g fill="#ffffff">
    <circle cx="180" cy="180" r="16" fill="#32d5ff" />
    <circle cx="220" cy="164" r="10" fill="#9b9bff" />
    <circle cx="260" cy="188" r="12" fill="#53b7ff" />
  </g>
</svg>
