<svg xmlns="http://www.w3.org/2000/svg" viewBox="0 0 512 512">
  <defs>
    <linearGradient id="bg3" x1="0%" y1="0%" x2="100%" y2="100%">
      <stop offset="0%" stop-color="#031024" />
      <stop offset="100%" stop-color="#071b34" />
    </linearGradient>
    <linearGradient id="scan" x1="0%" y1="0%" x2="100%" y2="100%">
      <stop offset="0%" stop-color="#41d6ff" />
      <stop offset="100%" stop-color="#3859ff" />
    </linearGradient>
    <linearGradient id="chart" x1="0%" y1="0%" x2="100%" y2="0%">
      <stop offset="0%" stop-color="#1ba6f2" />
      <stop offset="100%" stop-color="#6f6ff2" />
    </linearGradient>
  </defs>
  <rect width="512" height="512" fill="url(#bg3)" />
  <g fill="none" stroke="#112f57" stroke-width="2">
    <path d="M60 128h392" opacity="0.45" />
    <path d="M60 188h392" opacity="0.4" />
    <path d="M60 248h392" opacity="0.35" />
    <path d="M60 308h392" opacity="0.3" />
    <path d="M60 368h392" opacity="0.25" />
    <path d="M128 80v352" opacity="0.4" />
    <path d="M188 80v352" opacity="0.35" />
    <path d="M248 80v352" opacity="0.3" />
    <path d="M308 80v352" opacity="0.25" />
    <path d="M368 80v352" opacity="0.2" />
  </g>
  <g>
    <path d="M340 176a84 84 0 0 0-78-56c-10 0-19 1-28 4-22-30-58-50-98-50-68 0-124 56-124 124 0 8 1 16 2 24C36 228 0 270 0 320c0 66 54 120 120 120h260c68 0 124-56 124-124s-56-124-124-124c-6 0-12 0-18 1z" fill="#0f1c33" opacity="0.75" />
  </g>
  <g fill="#0f1c33" stroke="#41d6ff" stroke-width="10" opacity="0.85">
    <rect x="280" y="236" width="152" height="184" rx="24" />
    <rect x="320" y="268" width="72" height="40" rx="10" />
  </g>
  <g transform="translate(60 260)">
    <rect x="0" y="0" width="64" height="160" rx="14" fill="url(#chart)" opacity="0.65" />
    <rect x="84" y="-36" width="64" height="196" rx="14" fill="url(#chart)" opacity="0.8" />
    <rect x="168" y="-68" width="64" height="228" rx="14" fill="url(#chart)" />
  </g>
  <g fill="none" stroke="url(#scan)" stroke-width="12" stroke-linecap="round" stroke-linejoin="round">
    <circle cx="352" cy="184" r="72" />
    <path d="M398 232l58 58" />
  </g>
  <g fill="#0b162d" stroke="#53c6ff" stroke-width="10">
    <rect x="160" y="136" width="144" height="88" rx="18" />
  </g>
  <g fill="#53c6ff">
    <circle cx="200" cy="176" r="12" />
    <circle cx="232" cy="176" r="12" opacity="0.75" />
    <circle cx="264" cy="176" r="12" opacity="0.6" />
  </g>
</svg>
